# xmcd
#
# Track frame offsets: 
#        150
#        14647
#        25987
#        37295
#        48670
#        62155
#        77980
#        93897
#        106420
#        116290
#        130750
#        145497
#        159277
#        170980
#        183520
#        197137
#        207117
#        221957
#        236400
#        249450
#        260870
#        272922
#        285492
#        298765
#        309872
#        323052
#        335147
#
# Disc length: 4645 seconds
#
# Revision: 3
# Processed by: cddbd v1.5.2PL0 Copyright (c) Steve Scherf et al.
# Submitted via: ExactAudioCopyFreeDBPlugin 1.0
#
DISCID=aa12231b
DTITLE=Louis Jordan - Let the Good Times Roll:  The Complete US Decca 
DTITLE=Recordings, 1938-1954 [Bear Family box set]
DYEAR=1992
DGENRE=Rhythm and Blues
TTITLE0=If You've Got Someplace to Go
TTITLE1=Weak Minded Blues
TTITLE2=Is My Pop in There?
TTITLE3=I Can't Give You Anything But Love, Baby
TTITLE4=If You So Smart, How Come You Ain't Rich?
TTITLE5=Trust in Me
TTITLE6=Louisville Lodge Meeting
TTITLE7=How Blue Can You Get?
TTITLE8=Happy Birthday Boogie
TTITLE9=May Every Day Be Christmas
TTITLE10=Please Don't Leave Me
TTITLE11=Bone Dry
TTITLE12=I Love That Kinda Carryin' On
TTITLE13=Three Handed Woman
TTITLE14=Fat Sam from Birmingham
TTITLE15=Cock-A-Doodle-Doo
TTITLE16=Garmoochie
TTITLE17=There Must Be a Way
TTITLE18=Come and Get It (instrumental)
TTITLE19=Stop Makin' Music
TTITLE20=Slow Down
TTITLE21=Work, Baby Work
TTITLE22=Never Trust a Woman
TTITLE23=All of Me (ft Valli Ford)
TTITLE24=There Goes My Heart
TTITLE25=Lay Something on the Bar (Besides Your Elbow)
TTITLE26=Gimme Gimme Blues
EXTD=YEAR: 1992
EXTT0=
EXTT1=
EXTT2=
EXTT3=
EXTT4=
EXTT5=
EXTT6=
EXTT7=
EXTT8=
EXTT9=
EXTT10=
EXTT11=
EXTT12=
EXTT13=
EXTT14=
EXTT15=
EXTT16=
EXTT17=
EXTT18=
EXTT19=
EXTT20=
EXTT21=
EXTT22=
EXTT23=
EXTT24=
EXTT25=
EXTT26=
PLAYORDER=
